<svg xmlns="http://www.w3.org/2000/svg" width="23.927" height="25.154" viewBox="0 0 23.927 25.154">
  <g id="Group_89" data-name="Group 89" transform="translate(-881 -821.846)">
    <path id="Path_36171" data-name="Path 36171" d="M28.907,15.468l-.158,2.09a8.892,8.892,0,0,1-5.492,7.582.946.946,0,0,1-.723,0,8.892,8.892,0,0,1-5.494-7.587l-.158-2.085a.946.946,0,0,1,.537-.924l5.071-2.412a.946.946,0,0,1,.811,0l5.071,2.407a.946.946,0,0,1,.537.929Zm-6.012-1.435-4.081,1.936.109,1.442a7.008,7.008,0,0,0,3.972,5.821h0Z" transform="translate(871.925 809.806)" fill="#d0103a"/>
    <g id="charity" transform="translate(881 815.816)">
      <g id="Group_94" data-name="Group 94" transform="translate(0 20.082)">
        <g id="Group_93" data-name="Group 93">
          <path id="Path_36166" data-name="Path 36166" d="M23.614,232.892a2.2,2.2,0,0,0-2.408.087c-.78.45-5.257,4.278-5.257,4.278H11.543a.482.482,0,0,1-.427-.435.436.436,0,0,1,.427-.427h2.7a1.868,1.868,0,0,0,2-1.708,1.822,1.822,0,0,0-2-1.708c-1.637,0-1.956.007-1.956.007a3.968,3.968,0,0,1-1.834-.313,5.056,5.056,0,0,0-2.311-.548,4.935,4.935,0,0,0-3.54,1.45L0,238.1l5.124,5.124,1.708-1.708h8.649a3.516,3.516,0,0,0,2.335-.887l5.856-6.569A.748.748,0,0,0,23.614,232.892Z" transform="translate(0 -232.125)" fill="#d0103a"/>
        </g>
      </g>
    </g>
  </g>
</svg>
