<svg id="Home" xmlns="http://www.w3.org/2000/svg" width="15.945" height="15.945" viewBox="0 0 15.945 15.945">
  <rect id="Canvas" width="15.945" height="15.945" fill="#58585a" opacity="0"/>
  <path id="Path_36119" data-name="Path 36119" d="M15.642,8.614,8.6,1.568a.664.664,0,0,0-.939,0L.609,8.614a.664.664,0,0,0,0,.939l.678.678a.664.664,0,0,0,.47.195h.375v3.986a.664.664,0,0,0,.664.664h2.99a.332.332,0,0,0,.332-.332V9.43A.332.332,0,0,1,6.451,9.1H9.772a.332.332,0,0,1,.332.332l.013,5.315a.332.332,0,0,0,.332.332h2.977a.664.664,0,0,0,.664-.664V10.427h.4a.664.664,0,0,0,.47-.195l.678-.678a.664.664,0,0,0,0-.939Z" transform="translate(-0.139 -0.461)" fill="#58585a"/>
</svg>
