<svg xmlns="http://www.w3.org/2000/svg" width="105" height="40.314" viewBox="0 0 105 40.314">
  <g id="Group_78" data-name="Group 78" transform="translate(-6522 802)">
    <g id="R2JtIx.tif" transform="translate(6522 -802)">
      <g id="Group_76" data-name="Group 76" transform="translate(0 0)">
        <path id="Path_36173" data-name="Path 36173" d="M1081.131,3598.348c2.521,0,5.013-.146,7.481.034,3.839.28,6.2,2.728,6.627,6.54a9.111,9.111,0,0,1-.553,4.684,6.909,6.909,0,0,1-5.551,4.175,17.6,17.6,0,0,1-2.751.19c-1.738.028-3.478.008-5.253.008Zm2.994,12.962a21.071,21.071,0,0,0,4.507-.208,4.1,4.1,0,0,0,3.34-3.257,8.491,8.491,0,0,0,.12-2.564,4.313,4.313,0,0,0-2.918-4c-1.645-.573-3.346-.284-5.048-.361Z" transform="translate(-1080.236 -3598.281)" fill="#fff"/>
        <path id="Path_36174" data-name="Path 36174" d="M1519.487,3872.931c.834,0,1.635-.009,2.436.012.09,0,.239.163.252.264a8.558,8.558,0,0,1,.012.98,4.049,4.049,0,0,1,3.326-1.466,3.914,3.914,0,0,1,3.214,1.543c.128-.111.253-.208.366-.318a5.338,5.338,0,0,1,5.6-.782,3.8,3.8,0,0,1,2.126,3.434c.091,2.437.028,4.881.029,7.321,0,.026-.022.052-.044.1h-2.739v-.554c0-1.935,0-3.87,0-5.8a4.925,4.925,0,0,0-.082-1.021,2,2,0,0,0-3.147-1.148,2.956,2.956,0,0,0-1.268,2.7c-.009,1.771,0,3.543,0,5.314v.513h-2.792v-.494q0-2.992,0-5.984a6.38,6.38,0,0,0-.047-.666,1.955,1.955,0,0,0-2.974-1.492,2.631,2.631,0,0,0-1.449,2.485c-.024,1.875-.006,3.751-.006,5.626v.521h-2.806Z" transform="translate(-1479.654 -3848.363)" fill="#fff"/>
        <path id="Path_36175" data-name="Path 36175" d="M1081.738,3821.457l-2.087,1.329c-.2-.261-.382-.507-.571-.747a1.788,1.788,0,0,0-1.231-.736,1.663,1.663,0,0,0-1.671.617,1.635,1.635,0,0,0-.051,1.778,5.057,5.057,0,0,0,.606.932c1.251,1.533,2.516,3.056,3.778,4.581a1.98,1.98,0,0,0,.191.164l2-2.432,2.032,1.631c-.188.235-.359.453-.533.666-.518.634-1.028,1.274-1.56,1.9a.437.437,0,0,0,0,.68c.759.878,1.494,1.776,2.238,2.668.1.124.2.254.361.458-.229.015-.38.033-.532.033-.848,0-1.7-.012-2.545.006a.764.764,0,0,1-.683-.323c-.281-.362-.585-.706-.87-1.046a13.8,13.8,0,0,1-1.6,1.089,6.02,6.02,0,0,1-5.894-.13,4.408,4.408,0,0,1-1.6-5.615,6.735,6.735,0,0,1,2.16-2.624c.14-.111.28-.221.418-.334a.466.466,0,0,0,.063-.1c-.184-.284-.389-.572-.564-.877a3.949,3.949,0,0,1,2.99-6.057,4.594,4.594,0,0,1,3.895.967A13.977,13.977,0,0,1,1081.738,3821.457Zm-2.88,10.026c-.976-1.157-1.958-2.328-2.953-3.488a.308.308,0,0,0-.3-.013,3.662,3.662,0,0,0-1.548,2,2.126,2.126,0,0,0,.949,2.543A3.175,3.175,0,0,0,1078.858,3831.483Z" transform="translate(-1071.108 -3799.358)" fill="#e43147"/>
        <path id="Path_36176" data-name="Path 36176" d="M1740.119,3872.844h2.669c.034.365.066.7.1,1.072a.619.619,0,0,0,.155-.061c3.205-2.526,7.183-1.155,8.1,2.826a5.985,5.985,0,0,1-1.725,6.2,5.849,5.849,0,0,1-6.019,1.037c-.153-.047-.3-.112-.509-.192v4.832h-2.774Zm2.756,6.49h-.006c0,.491.014.982-.006,1.472a.531.531,0,0,0,.316.571,4.03,4.03,0,0,0,3.4.2,3.466,3.466,0,0,0,1.9-3.739,3.115,3.115,0,0,0-1.062-2.227,2.637,2.637,0,0,0-2.777-.334,2.89,2.89,0,0,0-1.762,2.541C1742.836,3878.319,1742.875,3878.828,1742.875,3879.333Z" transform="translate(-1680.664 -3848.247)" fill="#fff"/>
        <path id="Path_36177" data-name="Path 36177" d="M1401.092,3598.177h2.812v5.28c.268-.146.469-.262.677-.366a5.017,5.017,0,0,1,7.275,3.788,6.174,6.174,0,0,1-1.339,5.347,6.289,6.289,0,0,1-5.172,2.036,15.58,15.58,0,0,1-3.949-.63.375.375,0,0,1-.329-.428q.011-7.391.007-14.781C1401.074,3598.352,1401.084,3598.28,1401.092,3598.177Zm4.373,13.694a3.586,3.586,0,0,0,2.576-.96,3.973,3.973,0,0,0,.577-4.662,2.28,2.28,0,0,0-1.738-1.187c-1.612-.2-2.87.481-2.953,2.1-.071,1.38-.023,2.765,0,4.148a.471.471,0,0,0,.275.35C1404.613,3611.761,1405.042,3611.805,1405.466,3611.871Z" transform="translate(-1371.743 -3598.177)" fill="#fff"/>
        <path id="Path_36178" data-name="Path 36178" d="M1265.368,3823.478c2.1,0,4.16-.138,6.2.035a4.643,4.643,0,0,1,4.264,5.246,4.826,4.826,0,0,1-5.063,4.534c-.833.01-1.665,0-2.56,0v5.849h-2.837Zm2.863,2.5v4.817c.692,0,1.346,0,2,0a4.2,4.2,0,0,0,.532-.053,2.191,2.191,0,0,0,2.014-2.219,2.314,2.314,0,0,0-1.915-2.521A21.051,21.051,0,0,0,1268.231,3825.981Z" transform="translate(-1248.104 -3803.485)" fill="#fff"/>
        <path id="Path_36179" data-name="Path 36179" d="M1259.549,3652.434a2.342,2.342,0,0,0,1.027,1.966,3.855,3.855,0,0,0,3.363.521,4.226,4.226,0,0,0,2.153-1.155l1.566,1.76a9.458,9.458,0,0,1-1.15.908,7.009,7.009,0,0,1-6.981.309,5.173,5.173,0,0,1-2.757-4.141,6.118,6.118,0,0,1,1.376-5.168,5.8,5.8,0,0,1,7.259-.909,5.468,5.468,0,0,1,2.182,3.7c.105.582.107,1.182.177,1.772.044.372-.119.446-.457.444-2.411-.012-4.822-.007-7.233-.007Zm5.262-2.092a2.356,2.356,0,0,0-2.39-2.321,2.6,2.6,0,0,0-2.878,2.321Z" transform="translate(-1240.189 -3641.405)" fill="#fff"/>
        <path id="Path_36180" data-name="Path 36180" d="M1551.217,3655.527a4.953,4.953,0,0,1-2.085,1.46,7.377,7.377,0,0,1-4.932.262,5.087,5.087,0,0,1-3.482-3.254,6.6,6.6,0,0,1-.016-4.8,5.456,5.456,0,0,1,5.3-3.5,5.109,5.109,0,0,1,5.211,4.688c.085.527.1,1.065.168,1.6.047.381-.069.513-.479.51-2.41-.02-4.82-.009-7.231-.009h-.518a2.252,2.252,0,0,0,.88,1.845,3.787,3.787,0,0,0,3.5.641,4.254,4.254,0,0,0,2.166-1.153Zm-2.789-5.118a2.409,2.409,0,0,0-2.637-2.336c-1.483.048-2.75,1.161-2.638,2.336Z" transform="translate(-1498.566 -3641.454)" fill="#fff"/>
        <path id="Path_36181" data-name="Path 36181" d="M2130.937,3652.528a2.6,2.6,0,0,0,1.71,2.349,4.612,4.612,0,0,0,4.475-.65c.134-.091.25-.207.409-.34l1.528,1.715c-.249.236-.465.478-.716.674-2.052,1.594-5.814,1.868-8,.206a5.506,5.506,0,0,1-2.1-3.51,6.237,6.237,0,0,1,.757-4.639,5.357,5.357,0,0,1,4.848-2.565c2.843,0,4.778,1.84,5.221,4.835a8.079,8.079,0,0,1,.089.842c.016.341,0,.683,0,1.083Zm5.351-2.057a2.511,2.511,0,0,0-3.159-2.284c-1.214.183-2.325,1.373-2.111,2.284Z" transform="translate(-2034.165 -3641.517)" fill="#fff"/>
        <path id="Path_36182" data-name="Path 36182" d="M1990.848,3876.981a5.957,5.957,0,1,1-11.907-.315,5.958,5.958,0,0,1,11.907.315Zm-2.82-.013c-.054-.351-.078-.71-.167-1.052a3.034,3.034,0,0,0-2.571-2.4,2.92,2.92,0,0,0-3.12,1.741,3.837,3.837,0,0,0,.348,3.978,2.926,2.926,0,0,0,4.575.236A3.855,3.855,0,0,0,1988.027,3876.968Z" transform="translate(-1898.325 -3846.844)" fill="#fff"/>
        <path id="Path_36183" data-name="Path 36183" d="M1809.622,3657.56a5.919,5.919,0,1,1,5.981-5.8A5.807,5.807,0,0,1,1809.622,3657.56Zm3.16-5.936c-.039-.279-.067-.559-.119-.835a3.024,3.024,0,0,0-4.871-1.979,3.6,3.6,0,0,0-1.205,3.413,3.1,3.1,0,0,0,4.118,2.718A3.548,3.548,0,0,0,1812.782,3651.624Z" transform="translate(-1738.602 -3641.473)" fill="#fff"/>
        <path id="Path_36184" data-name="Path 36184" d="M2132.41,3884.043v-11.113c.839,0,1.653-.009,2.467.014.082,0,.209.184.228.3a7.987,7.987,0,0,1,.049.895c.174-.158.3-.268.42-.383,1.588-1.534,5.345-1.511,6.56.919a5.6,5.6,0,0,1,.583,2.495c.017,2.2.007,4.406.006,6.608a2.253,2.253,0,0,1-.028.24h-2.808v-.5q0-2.991,0-5.983c0-1.374-.492-2.113-1.567-2.357a2.46,2.46,0,0,0-2.751,1.416,4.444,4.444,0,0,0-.345,1.632c-.042,1.785-.026,3.572-.007,5.357,0,.375-.109.486-.478.473C2133.969,3884.025,2133.2,3884.043,2132.41,3884.043Z" transform="translate(-2038.09 -3848.36)" fill="#fff"/>
        <path id="Path_36185" data-name="Path 36185" d="M2006.934,3655.916l1.751-1.892a4.517,4.517,0,0,0,3.855,1.142,3.452,3.452,0,0,0,.641-.172.751.751,0,0,0,.56-.676.771.771,0,0,0-.4-.83,14.851,14.851,0,0,0-1.649-.654c-.6-.2-1.252-.3-1.828-.554a5.392,5.392,0,0,1-1.559-1,2.863,2.863,0,0,1,.164-4.3,4.674,4.674,0,0,1,2.571-1.141,7.267,7.267,0,0,1,5.054.966c.073.048.142.1.253.185l-1.357,1.864c-.824-.254-1.581-.547-2.366-.706a4.675,4.675,0,0,0-1.5.042.959.959,0,0,0-.869.831.852.852,0,0,0,.689.874c.759.255,1.537.45,2.3.7a9.56,9.56,0,0,1,1.774.7,3.134,3.134,0,0,1,.159,5.354,7.281,7.281,0,0,1-7.741-.37C2007.278,3656.167,2007.12,3656.057,2006.934,3655.916Z" transform="translate(-1923.821 -3641.512)" fill="#fff"/>
        <path id="Path_36186" data-name="Path 36186" d="M1877.357,3841.371h-1.841V3839.1h1.828v-3.566h2.851v3.536h2.914v2.293h-2.878c-.014.167-.034.294-.034.421,0,1.518.007,3.036,0,4.554-.014,1.942,1.324,2.1,2.568,1.482.172-.086.333-.193.542-.316l1.187,1.715a4.67,4.67,0,0,1-1.777,1.067,5.414,5.414,0,0,1-2.6.166,2.978,2.978,0,0,1-2.65-2.965c-.11-1.824-.075-3.656-.1-5.485C1877.354,3841.806,1877.357,3841.616,1877.357,3841.371Z" transform="translate(-1804.021 -3814.507)" fill="#fff"/>
        <path id="Path_36187" data-name="Path 36187" d="M1672.634,3657.68c.953-2.538,1.877-4.983,2.783-7.434.109-.293.234-.415.562-.405.861.026,1.724.009,2.636.009-.043.138-.066.246-.109.346q-2.189,5.2-4.374,10.394a.464.464,0,0,1-.522.34c-.729-.02-1.459.005-2.187-.017a.524.524,0,0,1-.4-.229q-2.271-5.307-4.511-10.626a1.441,1.441,0,0,1-.047-.2c1.021,0,2.015-.011,3.008.015.113,0,.272.191.323.327.9,2.361,1.781,4.726,2.668,7.091C1672.508,3657.392,1672.557,3657.5,1672.634,3657.68Z" transform="translate(-1613.561 -3645.225)" fill="#fff"/>
        <path id="Path_36188" data-name="Path 36188" d="M1404,3839.16c-.87,0-1.7.008-2.531-.011-.09,0-.191-.156-.258-.258-.035-.052-.007-.145-.007-.219q0-7.411,0-14.822c0-.132.012-.263.02-.428H1404Z" transform="translate(-1371.849 -3803.48)" fill="#fff"/>
        <path id="Path_36189" data-name="Path 36189" d="M1957.531,3650.075h2.749v11.034h-2.749Z" transform="translate(-1878.723 -3645.439)" fill="#fff"/>
        <path id="Path_36190" data-name="Path 36190" d="M1461.128,3875.448h2.727v11.061h-2.727Z" transform="translate(-1426.453 -3850.859)" fill="#fff"/>
        <path id="Path_36191" data-name="Path 36191" d="M1460.449,3823.189h2.934v2.915h-2.934Z" transform="translate(-1425.834 -3803.185)" fill="#fff"/>
        <path id="Path_36192" data-name="Path 36192" d="M1959.458,3601.258h-2.93v-2.872h2.93Z" transform="translate(-1877.809 -3598.368)" fill="#fff"/>
      </g>
    </g>
  </g>
</svg>
