<svg xmlns="http://www.w3.org/2000/svg" width="22.972" height="23" viewBox="0 0 22.972 23">
  <g id="signing-the-contract" transform="translate(-0.028)">
    <g id="Layer_1_155_" transform="translate(0.028)">
      <g id="Group_88" data-name="Group 88">
        <path id="Path_36156" data-name="Path 36156" d="M16.925,8.368H9.085a1.045,1.045,0,1,0,0,2.091h7.84a1.045,1.045,0,1,0,0-2.091Z" transform="translate(-4.119 -4.273)" fill="#d0103a"/>
        <path id="Path_36157" data-name="Path 36157" d="M17.97,17.424a1.045,1.045,0,0,0-1.046-1.045H9.085a1.045,1.045,0,1,0,0,2.091h7.84A1.045,1.045,0,0,0,17.97,17.424Z" transform="translate(-4.119 -8.364)" fill="#d0103a"/>
        <path id="Path_36158" data-name="Path 36158" d="M13.005,26.481a1.045,1.045,0,0,0,0-2.091H9.085a1.045,1.045,0,1,0,0,2.091Z" transform="translate(-4.119 -12.455)" fill="#d0103a"/>
        <path id="Path_36159" data-name="Path 36159" d="M16.806,17.582l-1.1.724v2.6H2.119V2.091h13.59V6.222L17.8,2.6V1.045A1.045,1.045,0,0,0,16.755,0H1.073A1.045,1.045,0,0,0,.028,1.045V21.955A1.045,1.045,0,0,0,1.073,23H16.755A1.046,1.046,0,0,0,17.8,21.955V16.193l-.5.864A1.576,1.576,0,0,1,16.806,17.582Z" transform="translate(-0.028)" fill="#d0103a"/>
        <path id="Path_36160" data-name="Path 36160" d="M35.488,7.526a2.982,2.982,0,0,0-1.572-1.707,2.978,2.978,0,0,0-2.265-.508.524.524,0,0,0-.3.237L24.821,16.865a.529.529,0,0,0-.069.231l-.245,4.084a.523.523,0,0,0,.809.468l3.414-2.254a.515.515,0,0,0,.165-.174L35.43,7.9A.525.525,0,0,0,35.488,7.526ZM26.634,19.838a4.6,4.6,0,0,0-.583-.4,4.671,4.671,0,0,0-.635-.307l.073-1.224a3.8,3.8,0,0,1,2.168,1.251Z" transform="translate(-12.528 -2.684)" fill="#d0103a"/>
        <path id="Path_36161" data-name="Path 36161" d="M10.791,35.327c.034.21.276.275.438.343s.344-.059.474-.122c.8-.388,1.878.068,2.733.068a.392.392,0,0,0,0-.784,16.266,16.266,0,0,0-2.813-.089.493.493,0,0,0-.083-.24.618.618,0,0,0-.655-.367.923.923,0,0,0-.053-.112.364.364,0,0,0-.245-.172,1.639,1.639,0,0,0,.273-1.4.39.39,0,0,0-.339-.194c-.524-.02-.973.53-1.31.86a25.549,25.549,0,0,0-2.3,2.7c-.308.4.373.79.677.4a27.941,27.941,0,0,1,2.035-2.378c-.175.287-.36.568-.555.839-.279.431.387.8.677.4A.881.881,0,0,1,10,34.816l-.058.145h0c-.015.031-.03.063-.043.092-.175.439.479.64.717.3a2.468,2.468,0,0,0,.166-.272A1.174,1.174,0,0,0,10.791,35.327Z" transform="translate(-3.503 -16.47)" fill="#d0103a"/>
      </g>
    </g>
  </g>
</svg>
