<svg id="Layer_1" data-name="Layer 1" xmlns="http://www.w3.org/2000/svg" xmlns:xlink="http://www.w3.org/1999/xlink" width="12" height="15" viewBox="0 0 12 15"><defs><style>.cls-1{fill:none;}.cls-2{clip-path:url(#clip-path);}.cls-3{fill:#d0103a;}.cls-4{isolation:isolate;}.cls-5{fill:#fff;}</style><clipPath id="clip-path"><rect class="cls-1" x="0.3565" y="0.0875" width="11.287" height="14.825"/></clipPath></defs><title>popup</title><g class="cls-2"><g id="Component"><path id="Union_1" data-name="Union 1" class="cls-3" d="M1.8185,9.5205a5.643,5.643,0,1,1,8.306.061l-4.184,5.33Z"/><g id="i" class="cls-4"><g class="cls-4"><path class="cls-5" d="M4.71516,3.26605A1.29272,1.29272,0,0,1,6.01709,1.96412,1.2927,1.2927,0,0,1,7.319,3.26605,1.29539,1.29539,0,0,1,6.01709,4.568,1.29541,1.29541,0,0,1,4.71516,3.26605Zm.632,4.88044q0-.60937-.01513-1.14453-.01539-.53468-.065-1.0752.13991.02052.33008.03516c.12647.00977.26612.01465.41992.01465a4.47868,4.47868,0,0,0,.75-.04981q-.05053.54054-.06494,1.0752-.01537.53468-.01513,1.14453v.40039q0,.60938.01513,1.15039.01466.53907.06494,1.03906a2.30189,2.30189,0,0,0-.32519-.01953H5.59717a2.47544,2.47544,0,0,0-.33008.01953q.04982-.4995.065-1.03906.01464-.54053.01513-1.15039Z"/></g></g></g></g></svg>