<svg xmlns="http://www.w3.org/2000/svg" width="24.732" height="24.722" viewBox="0 0 24.732 24.722">
  <g id="Group_88" data-name="Group 88" transform="translate(-893.847 -754.348)">
    <g id="Group_89" data-name="Group 89" transform="translate(891.347 751.848)">
      <path id="Path_36163" data-name="Path 36163" d="M26.858,25.114l-5.465-5.465A10.577,10.577,0,0,0,13.092,2.5a10.592,10.592,0,0,0,0,21.183,10.508,10.508,0,0,0,6.558-2.29l5.465,5.465a1.285,1.285,0,0,0,.885.364,1.334,1.334,0,0,0,.885-.364A1.233,1.233,0,0,0,26.858,25.114ZM4.972,13.092a8.119,8.119,0,1,1,8.119,8.119A8.13,8.13,0,0,1,4.972,13.092Z" fill="#d0103a"/>
    </g>
    <g id="Group_90" data-name="Group 90" transform="translate(891.347 751.848)">
      <path id="Path_36162" data-name="Path 36162" d="M30.98,31.985A8.345,8.345,0,0,0,24.891,29.2,8.345,8.345,0,0,0,18.8,31.985a1.257,1.257,0,0,0,0,1.744,8.443,8.443,0,0,0,6.089,2.785,8.345,8.345,0,0,0,6.089-2.785A1.257,1.257,0,0,0,30.98,31.985Zm-6.089,3.3a2.446,2.446,0,1,1,2.446-2.446A2.443,2.443,0,0,1,24.891,35.289Z" transform="translate(-11.799 -19.752)" fill="#d0103a"/>
      <circle id="Ellipse_14" data-name="Ellipse 14" cx="1.483" cy="1.483" r="1.483" transform="translate(11.608 11.608)" fill="#d0103a"/>
    </g>
  </g>
</svg>
